<svg width="20" height="34" viewBox="0 0 20 34" fill="none" xmlns="http://www.w3.org/2000/svg">
<g clip-path="url(#clip0_1_31)">
<path d="M10.7155 14.9711C6.53056 13.9116 5.18502 12.7568 5.18502 11.0086C5.18502 8.99563 7.04971 7.59711 10.1646 7.59711C13.449 7.59711 14.6674 9.16514 14.7733 11.4748H18.8523C18.8134 9.80434 18.205 8.19729 17.1279 6.91983C16.0508 5.64237 14.5697 4.77114 12.9298 4.45045V0.413818H7.39934V4.38688C3.82888 5.1603 0.947091 7.49116 0.947091 11.051C0.947091 15.289 4.47517 17.4079 9.61366 18.6581C14.2224 19.7176 15.1442 21.3916 15.1442 23.1079C15.1442 24.3793 14.2436 26.4029 10.1646 26.4029C6.37164 26.4029 4.86718 24.7078 4.67647 22.5358H0.618652C0.841144 26.5724 3.86067 28.8927 7.39934 29.592V33.5968H12.9298V29.6767C16.5321 28.9987 19.3821 26.9115 19.3821 23.1397C19.3821 17.8529 14.9005 16.0624 10.7155 14.9711Z" fill="white" stroke="white" stroke-width="0.5" stroke-miterlimit="10"/>
</g>
<defs>
<clipPath id="clip0_1_31">
<rect width="20" height="34" fill="white"/>
</clipPath>
</defs>
</svg>
