<svg width="36" height="42" viewBox="0 0 36 42" fill="none" xmlns="http://www.w3.org/2000/svg">
<g clip-path="url(#clip0_1_39)">
<path d="M17.9629 0.748047L5.2491 10.4423L0.269531 14.2353V41.2521H35.688V14.2564L17.9629 0.748047ZM30.6767 36.2725H20.7705V27.4258H15.2294V36.2725H5.2491V17.4031L17.9629 7.69825L30.6767 17.4031V36.2725Z" fill="white"/>
<path d="M30.4865 26.8854H5.50391V36.2618H30.4865V26.8854Z" fill="#574D9C"/>
<path d="M18.4523 24.491C15.846 23.8129 14.956 23.0818 14.956 22.0224C14.956 20.751 16.1426 19.9034 18.1345 19.9034C20.1263 19.9034 20.9845 20.8993 21.0586 22.3508H23.6332C23.6055 21.2964 23.2203 20.2828 22.5407 19.4762C21.8611 18.6695 20.9276 18.1178 19.8932 17.9116V15.2841H16.3545V17.7844C14.0978 18.2718 12.2755 19.7445 12.2755 22.0224C12.2755 24.7135 14.5004 26.059 17.753 26.843C20.6772 27.5423 21.2599 28.5594 21.2599 29.6506C21.2599 30.4558 20.6878 31.7696 18.0815 31.7696C15.6871 31.7696 14.7441 30.7101 14.617 29.3222H12.0742C12.212 31.8756 14.119 33.3059 16.3121 33.7826V40.8917H19.819V33.7614C22.0863 33.3376 23.898 32.0133 23.898 29.6294C23.9404 26.3133 21.1434 25.2008 18.4523 24.491Z" fill="white" stroke="white" stroke-width="0.5" stroke-miterlimit="10"/>
</g>
<defs>
<clipPath id="clip0_1_39">
<rect width="36" height="42" fill="white"/>
</clipPath>
</defs>
</svg>
